<svg width="52" height="52" viewBox="0 0 52 52" fill="none" xmlns="http://www.w3.org/2000/svg">
<path d="M24.2677 0.432264C25.3945 0.0719763 26.6055 0.0719763 27.7323 0.432264L44.7948 5.89226C45.9432 6.25949 46.9452 6.98217 47.6561 7.95597C48.367 8.92977 48.7501 10.1043 48.75 11.31V22.75C48.75 27.8395 47.71 33.0915 44.5152 37.9665C41.3205 42.8383 36.114 47.1088 28.1612 50.4953C27.4777 50.7858 26.7427 50.9355 26 50.9355C25.2573 50.9355 24.5223 50.7858 23.8388 50.4953C15.886 47.1088 10.6795 42.8383 7.48475 37.9665C4.29 33.0915 3.25 27.8395 3.25 22.75V11.31C3.2499 10.1043 3.63297 8.92977 4.3439 7.95597C5.05483 6.98217 6.05683 6.25949 7.20525 5.89226L24.2677 0.432264ZM26.2502 5.07651C26.0886 5.02455 25.9147 5.02455 25.753 5.07651L8.6905 10.5365C8.52643 10.5889 8.38324 10.692 8.2816 10.831C8.17995 10.9701 8.12512 11.1378 8.125 11.31V22.75C8.125 27.1635 9.01875 31.4145 11.5602 35.295C14.1082 39.1755 18.4535 42.9 25.7498 46.0103C25.829 46.0433 25.9141 46.0604 26 46.0604C26.0859 46.0604 26.171 46.0433 26.2502 46.0103C33.5465 42.9033 37.8918 39.1755 40.4398 35.2918C42.9813 31.4145 43.875 27.17 43.875 22.75V11.31C43.8749 11.1378 43.82 10.9701 43.7184 10.831C43.6168 10.692 43.4736 10.5889 43.3095 10.5365L26.2502 5.07651ZM26 10.5625C26.4868 10.5626 26.9624 10.7085 27.3655 10.9813C27.7687 11.2541 28.0809 11.6414 28.262 12.0933L36.387 32.4058C36.6044 33.0009 36.5814 33.6573 36.3231 34.2359C36.0647 34.8144 35.5912 35.2696 35.003 35.505C34.4147 35.7404 33.7579 35.7375 33.1718 35.4969C32.5856 35.2562 32.1162 34.7968 31.863 34.216L30.849 31.6875H21.151L20.137 34.216C19.8838 34.7968 19.4144 35.2562 18.8282 35.4969C18.2421 35.7375 17.5853 35.7404 16.997 35.505C16.4088 35.2696 15.9353 34.8144 15.6769 34.2359C15.4186 33.6573 15.3956 33.0009 15.613 32.4058L23.738 12.0933C23.9191 11.6414 24.2313 11.2541 24.6345 10.9813C25.0376 10.7085 25.5132 10.5626 26 10.5625ZM23.101 26.8125H28.899L26 19.565L23.101 26.8125Z" fill="#5C5C5C"/>
</svg>
