<svg width="37" height="52" viewBox="0 0 37 52" fill="none" xmlns="http://www.w3.org/2000/svg">
<path d="M27.0595 36.53C25.4995 37.8647 22.386 38.7725 18.8002 38.7725C14.3975 38.7725 10.7077 37.4032 9.72833 35.5593C9.3795 36.6167 9.29933 37.8257 9.29933 38.597C9.29933 38.597 9.06967 42.3887 11.7065 45.0277C11.7065 43.6583 12.818 42.5468 14.1873 42.5468C16.5338 42.5468 16.5317 44.5943 16.5295 46.2562V46.4057C16.5295 48.9277 18.07 51.0878 20.2627 52C19.9251 51.3053 19.7503 50.5429 19.7513 49.7705C19.7513 47.3655 21.164 46.4707 22.8063 45.4307C24.1107 44.6008 25.5623 43.6822 26.5612 41.834C27.0998 40.8402 27.3813 39.7274 27.3802 38.597C27.3805 37.8956 27.2723 37.1984 27.0595 36.53ZM25.9263 1.3C26.351 1.82867 26.5677 2.53933 27.001 3.96283L36.465 35.048C32.9102 33.2034 29.0949 31.9116 25.1507 31.2173L18.9908 10.4C18.9416 10.234 18.8398 10.0884 18.7009 9.98496C18.5619 9.88157 18.3932 9.82595 18.22 9.82644C18.0469 9.82693 17.8785 9.88349 17.7401 9.98767C17.6017 10.0918 17.5008 10.238 17.4525 10.4043L11.3642 31.2108C7.4024 31.9021 3.5699 33.1962 0 35.048L9.5095 3.9585C9.94283 2.53717 10.1595 1.8265 10.5863 1.3C10.9613 0.835105 11.4492 0.474064 12.0033 0.251333C12.6317 0 13.3727 0 14.859 0H21.6515C23.1378 0 23.8832 0 24.5115 0.2535C25.0638 0.476344 25.5522 0.836561 25.9263 1.3Z" fill="#5C5C5C"/>
</svg>
