<svg width="55" height="55" viewBox="0 0 55 55" fill="none" xmlns="http://www.w3.org/2000/svg">
<g clip-path="url(#clip0_63_288)">
<path d="M1.83333 20.1667V18.3334H0V20.1667H1.83333ZM9.16667 12.8334V11H7.33333V12.8334H9.16667ZM23.8333 5.50002V3.66669H22V5.50002H23.8333ZM31.1667 5.50002H33V3.66669H31.1667V5.50002ZM45.8333 27.5H44V29.3334H45.8333V27.5ZM3.66667 27.5V20.1667H0V27.5H3.66667ZM11 27.5V12.8334H7.33333V27.5H11ZM9.16667 14.6667H31.1667V11H9.16667V14.6667ZM29.3333 12.8334V27.5H33V12.8334H29.3333ZM18.3333 27.5V12.8334H14.6667V27.5H18.3333ZM25.6667 27.5V5.50002H22V27.5H25.6667ZM23.8333 7.33335H31.1667V3.66669H23.8333V7.33335ZM29.3333 5.50002V12.8334H33V5.50002H29.3333ZM50.3653 36.6667H55V33H50.3653V36.6667ZM36.6667 18.3334V20.1667H40.3333V18.3334H36.6667ZM44 23.8334V27.5H47.6667V23.8334H44ZM45.8333 29.3334H49.5V25.6667H45.8333V29.3334ZM51.3333 31.1667V34.8334H55V31.1667H51.3333ZM49.5 29.3334C49.9862 29.3334 50.4525 29.5265 50.7964 29.8703C51.1402 30.2141 51.3333 30.6805 51.3333 31.1667H55C55 29.708 54.4205 28.309 53.3891 27.2776C52.3576 26.2461 50.9587 25.6667 49.5 25.6667V29.3334ZM42.1667 22C42.6529 22 43.1192 22.1932 43.463 22.537C43.8068 22.8808 44 23.3471 44 23.8334H47.6667C47.6667 22.3747 47.0872 20.9757 46.0558 19.9443C45.0243 18.9128 43.6254 18.3334 42.1667 18.3334V22ZM11 36.6667H14.6667V33H11V36.6667ZM31.1667 25.6667H1.83333V29.3334H31.1667V25.6667ZM0 27.5V31.1667H3.66667V27.5H0ZM20.1667 51.3333H22.1027V47.6667H20.1667V51.3333ZM22.1027 51.3333C26.5491 51.3333 30.9332 50.2879 34.9013 48.2816C38.8693 46.2753 42.3101 43.3642 44.946 39.7834L41.9943 37.609C39.6989 40.7271 36.7027 43.2619 33.2474 45.009C29.7921 46.7561 25.9745 47.6664 22.1027 47.6667V51.3333ZM0 31.1667C0 36.5152 2.1247 41.6447 5.90668 45.4267C9.68866 49.2087 14.8181 51.3333 20.1667 51.3333V47.6667C15.7906 47.6667 11.5938 45.9283 8.4994 42.8339C5.40505 39.7396 3.66667 35.5428 3.66667 31.1667H0ZM1.83333 22H42.1667V18.3334H1.83333V22ZM36.6667 20.1667C36.6667 21.6254 36.0872 23.0243 35.0558 24.0558C34.0243 25.0872 32.6254 25.6667 31.1667 25.6667V29.3334C33.5978 29.3334 35.9294 28.3676 37.6485 26.6485C39.3676 24.9294 40.3333 22.5978 40.3333 20.1667H36.6667ZM50.3653 33C46.8453 33 43.879 35.046 41.9943 37.609L44.946 39.7834C46.3503 37.8694 48.3303 36.6667 50.3653 36.6667V33Z" fill="#5C5C5C"/>
</g>
<defs>
<clipPath id="clip0_63_288">
<rect width="55" height="55" fill="white"/>
</clipPath>
</defs>
</svg>
