<svg width="52" height="52" viewBox="0 0 52 52" fill="none" xmlns="http://www.w3.org/2000/svg">
<path d="M37.375 19.5C38.7392 18.4768 39.7469 17.0503 40.2554 15.4226C40.7638 13.7949 40.7473 12.0484 40.208 10.4307C39.6687 8.81286 38.6341 7.40576 37.2507 6.40866C35.8673 5.41155 34.2052 4.875 32.5 4.875H17.875C16.1697 4.875 14.5076 5.41155 13.1242 6.40866C11.7408 7.40576 10.7062 8.81286 10.1669 10.4307C9.62764 12.0484 9.61107 13.7949 10.1195 15.4226C10.628 17.0503 11.6357 18.4768 13 19.5C11.967 20.2741 11.1334 21.2832 10.5681 22.4436C10.0028 23.6041 9.72216 24.8825 9.74936 26.173C9.77656 27.4635 10.1108 28.729 10.7245 29.8646C11.3382 31.0002 12.2136 31.9732 13.2782 32.7031C12.0673 33.6238 11.1114 34.8383 10.501 36.2317C9.8906 37.6251 9.64597 39.1512 9.79025 40.6655C9.93453 42.1799 10.4629 43.6323 11.3255 44.8854C12.188 46.1384 13.3561 47.1506 14.7191 47.826C16.0821 48.5015 17.595 48.8178 19.1144 48.7451C20.6339 48.6725 22.1097 48.2132 23.402 47.4107C24.6944 46.6083 25.7605 45.4893 26.4995 44.1596C27.2385 42.83 27.6259 41.3337 27.625 39.8125V32.5C28.4785 33.1402 29.4499 33.606 30.4835 33.8708C31.5171 34.1356 32.5927 34.1942 33.649 34.0433C34.7053 33.8924 35.7215 33.535 36.6396 32.9914C37.5577 32.4477 38.3598 31.7286 39 30.875C39.6401 30.0214 40.1059 29.0501 40.3708 28.0165C40.6356 26.9829 40.6942 25.9072 40.5433 24.851C40.3924 23.7947 40.0349 22.7785 39.4913 21.8604C38.9477 20.9422 38.2285 20.1402 37.375 19.5ZM37.375 13C37.375 14.2929 36.8613 15.5329 35.9471 16.4471C35.0329 17.3614 33.7929 17.875 32.5 17.875H27.625V8.125H32.5C33.7929 8.125 35.0329 8.63862 35.9471 9.55286C36.8613 10.4671 37.375 11.7071 37.375 13ZM13 13C13 11.7071 13.5136 10.4671 14.4278 9.55286C15.342 8.63862 16.582 8.125 17.875 8.125H24.375V17.875H17.875C16.582 17.875 15.342 17.3614 14.4278 16.4471C13.5136 15.5329 13 14.2929 13 13ZM17.875 30.875C16.582 30.875 15.342 30.3614 14.4278 29.4471C13.5136 28.5329 13 27.2929 13 26C13 24.7071 13.5136 23.4671 14.4278 22.5529C15.342 21.6386 16.582 21.125 17.875 21.125H24.375V30.875H17.875ZM24.375 39.8125C24.375 40.9374 24.0414 42.037 23.4164 42.9723C22.7915 43.9076 21.9032 44.6366 20.864 45.0671C19.8247 45.4975 18.6811 45.6102 17.5779 45.3907C16.4746 45.1713 15.4612 44.6296 14.6658 43.8342C13.8704 43.0388 13.3287 42.0253 13.1092 40.9221C12.8898 39.8188 13.0024 38.6752 13.4329 37.636C13.8634 36.5967 14.5923 35.7085 15.5276 35.0835C16.463 34.4586 17.5626 34.125 18.6875 34.125H24.375V39.8125ZM32.5 30.875C31.5358 30.875 30.5932 30.5891 29.7916 30.0534C28.9899 29.5177 28.365 28.7564 27.996 27.8656C27.6271 26.9748 27.5305 25.9946 27.7186 25.0489C27.9067 24.1033 28.371 23.2346 29.0528 22.5529C29.7346 21.8711 30.6032 21.4068 31.5489 21.2187C32.4945 21.0306 33.4747 21.1271 34.3655 21.4961C35.2563 21.8651 36.0177 22.4899 36.5534 23.2916C37.089 24.0933 37.375 25.0358 37.375 26C37.375 27.2929 36.8613 28.5329 35.9471 29.4471C35.0329 30.3614 33.7929 30.875 32.5 30.875Z" fill="#5C5C5C"/>
</svg>
