<svg width="52" height="52" viewBox="0 0 52 52" fill="none" xmlns="http://www.w3.org/2000/svg">
<g clip-path="url(#clip0_63_325)">
<path d="M22.8302 1.95865L14.3044 26.0866L24.7 26.1668L16.5794 50.0392V50.0435L38.9914 18.1783H28.1104L38.6685 1.95648H30.3832L22.8302 1.95865ZM14.9565 10.6383C14.622 10.6385 14.3012 10.7709 14.0639 11.0066L0.33587 24.4508C0.119166 24.715 0.000732422 25.0462 0.000732422 25.3879C0.000732422 25.7296 0.119166 26.0608 0.33587 26.325L14.3065 40.183C14.5535 40.3995 14.8708 40.5189 15.1992 40.5189C15.5276 40.5189 15.8449 40.3995 16.0919 40.183C16.3273 39.9277 16.458 39.5932 16.458 39.2459C16.458 38.8986 16.3273 38.5641 16.0919 38.3088L4.31387 26.3272C4.07986 26.0712 3.95009 25.7369 3.95009 25.3901C3.95009 25.0432 4.07986 24.709 4.31387 24.453L15.8492 12.8743C15.983 12.7576 16.0902 12.6136 16.1637 12.4519C16.2372 12.2903 16.2752 12.1148 16.2752 11.9372C16.2752 11.7597 16.2372 11.5842 16.1637 11.4225C16.0902 11.2609 15.983 11.1169 15.8492 11.0001C15.6114 10.7654 15.2907 10.6338 14.9565 10.634V10.6383ZM37.0414 10.6383C36.7069 10.6385 36.386 10.7709 36.1487 11.0066C36.0147 11.123 35.9072 11.2668 35.8335 11.4282C35.7598 11.5897 35.7217 11.7652 35.7217 11.9426C35.7217 12.1201 35.7598 12.2956 35.8335 12.4571C35.9072 12.6185 36.0147 12.7623 36.1487 12.8786L47.9245 24.4551C48.1596 24.711 48.2901 25.0458 48.2901 25.3933C48.2901 25.7408 48.1596 26.0756 47.9245 26.3315L35.9039 38.3132C35.6694 38.5689 35.5393 38.9033 35.5393 39.2502C35.5393 39.5972 35.6694 39.9316 35.9039 40.1873C36.1508 40.4038 36.4681 40.5232 36.7965 40.5232C37.125 40.5232 37.4422 40.4038 37.6892 40.1873L51.6642 26.3293C51.8817 26.0655 52.0006 25.7342 52.0006 25.3922C52.0006 25.0503 51.8817 24.719 51.6642 24.4551L37.934 11.0045C37.6964 10.7695 37.3756 10.6379 37.0414 10.6383Z" fill="#5C5C5C"/>
</g>
<defs>
<clipPath id="clip0_63_325">
<rect width="52" height="52" fill="white"/>
</clipPath>
</defs>
</svg>
