<svg width="57" height="57" viewBox="0 0 57 57" fill="none" xmlns="http://www.w3.org/2000/svg">
<path d="M31.3945 5.34375C33.8918 11.2379 22.4402 14.8485 21.375 19.7612C20.4007 24.2695 28.1598 29.5581 28.1669 29.5581C26.9824 27.6931 26.1202 26.1203 24.9375 23.2115C22.9336 18.2988 37.148 13.867 31.3945 5.34375ZM38.9648 13.5268C38.9648 13.5268 28.9524 14.1592 28.4448 20.707C28.2132 23.6229 31.0882 25.153 31.1719 27.2763C31.2431 29.0077 29.4458 30.4469 29.4458 30.4469C29.4458 30.4469 32.6681 29.8644 33.6763 27.2193C34.7896 24.2838 31.5068 22.2799 31.8398 19.9268C32.1605 17.6807 38.9648 13.5268 38.9648 13.5268ZM41.4141 28.6104C40.3631 28.5623 39.1804 28.9524 38.1294 29.7237C40.2028 29.2659 41.9716 30.5663 41.9716 32.0625C41.9716 35.4166 37.1836 38.5748 37.1836 38.5748C37.1836 38.5748 44.5865 37.7465 44.5865 32.2299C44.5865 29.9535 43.1615 28.6942 41.4141 28.6104ZM21.7651 28.6674C19.1823 28.7565 14.0273 29.1822 14.0273 31.1719C14.0273 33.9417 26.0365 34.1573 34.6239 32.4526C34.6239 32.4526 36.9609 30.8245 37.5737 30.226C31.9449 31.3945 19.0932 31.5762 19.0932 30.5591C19.0932 29.6275 23.2115 28.6674 23.2115 28.6674C23.2115 28.6674 22.6272 28.6389 21.7651 28.6674ZM20.9849 33.7885C19.5724 33.7885 17.4776 34.8876 17.4776 35.9581C17.4776 38.1152 28.1117 39.7718 35.9599 36.6261L33.231 34.957C27.9086 36.6973 18.0761 36.1184 20.9849 33.7885ZM22.3208 38.63C20.3935 38.63 19.1484 39.8484 19.1484 40.7461C19.1484 43.507 30.6642 43.7796 35.2349 40.9688L32.3404 39.0753C28.9311 40.5448 20.3526 40.7604 22.3208 38.63ZM15.8638 41.1362C12.7199 41.0739 10.6875 42.4989 10.6875 43.6941C10.6875 50.0603 42.9174 49.7557 42.9174 43.2488C42.9174 42.1711 41.6438 41.6563 41.1914 41.4123C43.8223 47.6324 14.8627 47.1461 14.8627 43.4714C14.8627 42.6378 17.0056 41.8024 18.981 42.1925L17.312 41.2449C16.8323 41.175 16.3485 41.1399 15.8638 41.1362ZM46.3125 45.4219C41.4141 50.16 29.0166 51.8575 16.5318 48.9292C29.0148 54.1482 46.2502 51.2448 46.3125 45.4219Z" fill="#5C5C5C"/>
</svg>
