<svg width="67" height="75" viewBox="0 0 67 75" fill="none" xmlns="http://www.w3.org/2000/svg">
<g clip-path="url(#clip0_20_48)">
<path d="M33.218 74.8608C32.1864 74.8608 31.2236 74.5857 30.3296 74.1043L21.1824 68.6711C19.807 67.9146 20.4947 67.6395 20.9074 67.5019C22.7642 66.883 23.108 66.7455 25.0337 65.6448C25.2402 65.5073 25.5153 65.5761 25.7214 65.7136L32.7366 69.909C33.0117 70.0465 33.3555 70.0465 33.5619 69.909L61.003 54.0222C61.2781 53.8846 61.4157 53.6096 61.4157 53.2657V21.5604C61.4157 21.2166 61.2781 20.9415 61.003 20.8039L33.5619 4.98568C33.2868 4.84814 32.9429 4.84814 32.7366 4.98568L5.29542 20.8042C5.02033 20.9417 4.88279 21.2856 4.88279 21.5607V53.2657C4.88279 53.5408 5.02033 53.8846 5.29542 54.0222L12.792 58.3548C16.8498 60.4179 19.3941 58.0109 19.3941 55.6039V24.3113C19.3941 23.8987 19.7382 23.486 20.2196 23.486H23.7273C24.1399 23.486 24.5525 23.8299 24.5525 24.3113V55.6037C24.5525 61.0369 21.5951 64.2004 16.4369 64.2004C14.8552 64.2004 13.6173 64.2004 10.1099 62.4811L2.88841 58.3548C1.10035 57.323 0 55.3974 0 53.3342V21.6295C0 19.5663 1.10035 17.6407 2.88841 16.6089L30.3296 0.722102C32.0489 -0.240701 34.3871 -0.240701 36.1064 0.722102L63.5476 16.6089C65.3356 17.6404 66.436 19.566 66.436 21.6295V53.3345C66.436 55.3976 65.3356 57.3232 63.5476 58.3548L36.1064 74.2421C35.2124 74.6547 34.1808 74.861 33.218 74.861V74.8608ZM41.6772 53.0591C29.6416 53.0591 27.1658 47.5574 27.1658 42.8807C27.1658 42.468 27.5097 42.0554 27.9911 42.0554H31.5672C31.9798 42.0554 32.324 42.3305 32.324 42.7431C32.8741 46.388 34.4559 48.1763 41.7459 48.1763C47.523 48.1763 49.9991 46.8697 49.9991 43.775C49.9991 41.9866 49.3113 40.68 40.3017 39.7857C32.8054 39.0292 28.1286 37.3787 28.1286 31.3955C28.1286 25.8245 32.8051 22.5235 40.6456 22.5235C49.4486 22.5235 53.7815 25.5494 54.3317 32.1518C54.3317 32.3581 54.2629 32.5644 54.1254 32.7707C53.9878 32.9083 53.7815 33.0458 53.5752 33.0458H49.9991C49.6549 33.0458 49.3113 32.7707 49.2423 32.4269C48.417 28.6444 46.2851 27.4065 40.6456 27.4065C34.3186 27.4065 33.5619 29.6072 33.5619 31.2577C33.5619 33.2524 34.4559 33.8711 42.9838 34.9714C51.4433 36.0718 55.432 37.6538 55.432 43.5684C55.3632 49.6205 50.4117 53.0591 41.6772 53.0591Z" fill="#6BCD56"/>
</g>
<defs>
<clipPath id="clip0_20_48">
<rect width="66.4375" height="75" fill="white"/>
</clipPath>
</defs>
</svg>
