<svg width="74" height="74" viewBox="0 0 74 74" fill="none" xmlns="http://www.w3.org/2000/svg">
<g clip-path="url(#clip0_20_15)">
<path d="M0 0H74V74H0V0Z" fill="url(#paint0_linear_20_15)"/>
<path d="M25.9069 61.05H14.4213L27.1242 34.4987L32.88 46.348L25.9069 61.05ZM27.9532 31.9616C27.8769 31.8053 27.7582 31.6735 27.6106 31.5813C27.4631 31.489 27.2927 31.44 27.1187 31.4399H27.1158C26.9413 31.4401 26.7704 31.4896 26.6228 31.5826C26.4752 31.6757 26.3569 31.8086 26.2815 31.966L12.1155 61.5767C12.0483 61.7178 12.0179 61.8737 12.0272 62.0298C12.0365 62.1858 12.0851 62.337 12.1686 62.4692C12.2521 62.6013 12.3677 62.7102 12.5047 62.7857C12.6416 62.8611 12.7954 62.9006 12.9517 62.9006L26.4937 62.9003C26.6692 62.9004 26.841 62.8507 26.9894 62.7571C27.1378 62.6635 27.2566 62.5297 27.332 62.3713L34.7464 46.7388C34.8057 46.6139 34.836 46.4773 34.8352 46.3391C34.8344 46.2009 34.8025 46.0646 34.7418 45.9404L27.9532 31.9616ZM60.1206 61.05H48.7093L30.4018 22.7272C30.3263 22.5692 30.2076 22.4358 30.0594 22.3425C29.9112 22.2492 29.7396 22.1998 29.5644 22.2H22.0979L22.1066 12.95H36.7407L54.9637 51.2719C55.0392 51.43 55.1579 51.5635 55.3061 51.657C55.4543 51.7505 55.6259 51.8 55.8012 51.8H60.1206V61.05ZM61.0479 49.95H56.388L38.1649 11.6281C38.0893 11.4699 37.9705 11.3363 37.8221 11.2428C37.6738 11.1493 37.502 11.0998 37.3266 11.1H21.1805C20.935 11.0998 20.6996 11.197 20.5257 11.3703C20.3519 11.5435 20.2538 11.7787 20.2532 12.0241L20.243 23.1241C20.243 23.3701 20.3393 23.6051 20.5148 23.7788C20.6882 23.9529 20.9235 24.05 21.1701 24.05H28.9797L47.288 62.3728C47.3634 62.5306 47.4819 62.6639 47.6299 62.7572C47.7779 62.8506 47.9493 62.9 48.1242 62.9H61.0479C61.1695 62.9002 61.29 62.8763 61.4024 62.8299C61.5148 62.7835 61.617 62.7154 61.7031 62.6295C61.7891 62.5436 61.8575 62.4416 61.9041 62.3293C61.9508 62.217 61.9748 62.0966 61.9749 61.975V50.875C61.9749 50.3645 61.5604 49.95 61.0479 49.95Z" fill="white"/>
</g>
<defs>
<linearGradient id="paint0_linear_20_15" x1="0" y1="7400" x2="7400" y2="0" gradientUnits="userSpaceOnUse">
<stop stop-color="#C8511B"/>
<stop offset="1" stop-color="#FF9900"/>
</linearGradient>
<clipPath id="clip0_20_15">
<rect width="74" height="74" rx="15" fill="white"/>
</clipPath>
</defs>
</svg>
