<svg width="75" height="75" viewBox="0 0 75 75" fill="none" xmlns="http://www.w3.org/2000/svg">
<path d="M28.256 2.16267C37.7092 -0.261642 48.157 1.15105 56.494 6.29646C66.994 12.5757 73.8489 24.4535 74.0232 36.6803C74.407 49.0289 67.9708 61.2732 57.6278 67.9884C46.1162 75.7324 30.1919 76.0292 18.4359 68.6686C6.45351 61.5173 -0.540821 47.0929 1.25596 33.244C2.70322 18.6102 14.006 5.7032 28.256 2.16267Z" fill="#010101"/>
<path d="M26.8081 8.14539C44.6687 0.994028 66.5757 14.1975 68.4243 33.3489C71.3024 50.5813 57 68.093 39.5405 68.5989C22.9359 70.2559 6.88945 56.18 6.41865 39.5059C5.18027 26.0059 14.0757 12.6105 26.8081 8.14539Z" fill="white"/>
<path d="M28.6046 35.6513C36.6106 29.1105 44.4419 22.3429 52.6222 15.994C48.3314 22.5873 43.9187 29.0929 39.6278 35.6859C35.9476 35.7035 32.2676 35.7038 28.6046 35.6513ZM35.3722 39.2965C39.0697 39.2965 42.75 39.2965 46.4303 39.3489C38.3722 45.8546 30.5757 52.6743 22.3778 59.0059C26.6687 52.4127 31.0814 45.8897 35.3722 39.2965Z" fill="#010101"/>
</svg>
