<svg width="51" height="51" viewBox="0 0 51 51" fill="none" xmlns="http://www.w3.org/2000/svg">
<path d="M31.3709 30.3976C30.9518 30.3313 30.6223 30.1226 30.3822 29.7717C30.1421 29.4209 30.0556 29.0356 30.1228 28.616L31.0603 22.697L17.5294 32.5277C17.1856 32.7775 16.8126 32.8706 16.4103 32.8069C16.008 32.7432 15.6827 32.5395 15.4342 32.1959C15.1844 31.852 15.0914 31.479 15.1551 31.0767C15.2188 30.6744 15.4225 30.3491 15.7661 30.1007L29.2969 20.27L23.3256 19.3242C22.9065 19.2578 22.5756 19.0576 22.3329 18.7235C22.0901 18.3893 22.0022 18.0132 22.0692 17.5949C22.1356 17.1759 22.3358 16.845 22.6699 16.6022C23.004 16.3595 23.3802 16.2716 23.7985 16.3385L33.384 17.8567C33.5935 17.8899 33.7752 17.9588 33.929 18.0633C34.0829 18.1679 34.2182 18.3014 34.3349 18.4637C34.4525 18.6255 34.5372 18.7958 34.5891 18.9744C34.641 19.153 34.6507 19.3467 34.6184 19.5557L33.0919 29.1936C33.031 29.5777 32.8339 29.8909 32.5006 30.133C32.1673 30.3752 31.7907 30.4634 31.3709 30.3976Z" fill="#181818"/>
</svg>
