<svg width="38" height="38" viewBox="0 0 38 38" fill="none" xmlns="http://www.w3.org/2000/svg">
<path d="M19 3.16667C16.9207 3.16667 14.8618 3.57621 12.9408 4.37191C11.0198 5.16761 9.27439 6.33389 7.80413 7.80415C4.83481 10.7735 3.16666 14.8007 3.16666 19C3.16666 25.9983 7.71082 31.9358 13.9967 34.0417C14.7883 34.1683 15.0417 33.6775 15.0417 33.25V30.5742C10.6558 31.5242 9.72166 28.4525 9.72166 28.4525C8.99332 26.6158 7.96416 26.125 7.96416 26.125C6.52332 25.1433 8.07499 25.175 8.07499 25.175C9.65832 25.2858 10.4975 26.8058 10.4975 26.8058C11.875 29.2125 14.2025 28.5 15.105 28.12C15.2475 27.0908 15.6592 26.3942 16.1025 25.9983C12.5875 25.6025 8.89832 24.2408 8.89832 18.2083C8.89832 16.4508 9.49999 15.0417 10.5292 13.9175C10.3708 13.5217 9.81666 11.875 10.6875 9.7375C10.6875 9.7375 12.0175 9.31 15.0417 11.3525C16.2925 11.0042 17.6542 10.83 19 10.83C20.3458 10.83 21.7075 11.0042 22.9583 11.3525C25.9825 9.31 27.3125 9.7375 27.3125 9.7375C28.1833 11.875 27.6292 13.5217 27.4708 13.9175C28.5 15.0417 29.1017 16.4508 29.1017 18.2083C29.1017 24.2567 25.3967 25.5867 21.8658 25.9825C22.4358 26.4733 22.9583 27.4392 22.9583 28.9117V33.25C22.9583 33.6775 23.2117 34.1842 24.0192 34.0417C30.305 31.92 34.8333 25.9983 34.8333 19C34.8333 16.9207 34.4238 14.8618 33.6281 12.9408C32.8324 11.0199 31.6661 9.27441 30.1959 7.80415C28.7256 6.33389 26.9801 5.16761 25.0591 4.37191C23.1382 3.57621 21.0793 3.16667 19 3.16667Z" fill="#181818"/>
</svg>
