<svg width="25" height="52" viewBox="0 0 25 52" fill="none" xmlns="http://www.w3.org/2000/svg">
<g clip-path="url(#clip0_63_266)">
<path d="M23.6667 20.6223C20.9302 8.57567 14.4757 4.61717 13.7824 3.10267C13.1818 2.15936 12.6663 1.16456 12.2419 0.13L12.1942 0C12.1942 0.0411667 12.1942 0.0671667 12.1834 0.106167V0.418167V0.416V0.4615L12.1855 0.485333L12.1834 0.509167V0.621833L12.1639 0.730167V0.866667H12.153V0.901333H12.075V1.02483H12.062V1.1245H12.01V1.26317L11.9602 1.3L11.9494 1.31517V1.36283H11.9385V1.40183H11.9255V1.49933H11.9125V1.5405H11.9017V1.5795H11.8909V1.62717H11.7934V1.65967H11.7825V1.70083H11.7717V1.73333H11.7587V1.78317H11.7479V1.81133C11.7089 1.83027 11.6731 1.85512 11.6417 1.885L11.6222 1.90667V2.03233H11.6114V2.015H11.6005V2.03667H11.5897V2.054H11.5789V2.10167H11.4467V2.12333H11.425V2.16667H11.36V2.18833H11.3492V2.20133H11.3275V2.223H11.2625V2.236H11.2517V2.36167H11.2387V2.38333H11.2279V2.39633H11.217V2.40933L11.1867 2.444L11.1607 2.46567C11.1312 2.48705 11.1029 2.5102 11.0762 2.535L11.0285 2.57183L10.9224 2.65633L10.762 2.79067C10.6385 2.8925 10.5085 3.00733 10.359 3.13517C9.99288 3.45583 9.55738 3.8675 9.05904 4.36583L9.02654 4.39833C4.00853 9.72297 1.13163 16.7119 0.947043 24.0262V24.0652C0.903747 24.9127 0.908811 25.7619 0.96221 26.6088L0.960043 26.5438V26.5633C1.18241 30.2347 2.26291 33.8027 4.11471 36.9807L4.05404 36.868C4.72138 38.038 5.38438 39.0325 6.10804 39.9772L6.06038 39.9122C7.59734 41.9573 9.40748 43.782 11.4402 45.3353L11.5074 45.3852C12.1431 47.335 12.4363 49.3802 12.374 51.4302V51.4063L13.7694 51.8722C13.6133 50.0081 13.6561 48.1328 13.8972 46.2778L13.8842 46.41C14.025 45.8532 14.2872 45.37 14.6425 44.9713L14.6404 44.9757C15.286 44.5142 15.8515 44.057 16.3867 43.5652L16.3737 43.5782C16.4127 43.537 16.4344 43.5002 16.469 43.4612C18.9434 41.1484 20.9155 38.3512 22.2626 35.2437C23.6097 32.1361 24.303 28.7846 24.2994 25.3977C24.2994 23.6622 24.1217 21.97 23.7815 20.3342L23.8097 20.4945L23.6667 20.6223Z" fill="#5C5C5C"/>
</g>
<defs>
<clipPath id="clip0_63_266">
<rect width="23.84" height="52" fill="white" transform="translate(0.779053)"/>
</clipPath>
</defs>
</svg>
