<svg width="56" height="55" viewBox="0 0 56 55" fill="none" xmlns="http://www.w3.org/2000/svg">
<g clip-path="url(#clip0_63_259)">
<path d="M17.2791 16.5L18.7641 15.4257C18.5369 15.1119 18.2162 14.8782 17.848 14.758C17.4797 14.6378 17.0829 14.6373 16.7144 14.7566C16.3458 14.8759 16.0246 15.1089 15.7967 15.4221C15.5687 15.7353 15.4459 16.1126 15.4457 16.5H17.2791ZM28.2791 51.3333C21.9581 51.3333 15.896 48.8223 11.4263 44.3527C6.95672 39.8831 4.44572 33.821 4.44572 27.5H0.779053C0.779053 34.7935 3.67637 41.7882 8.83362 46.9454C13.9909 52.1027 20.9856 55 28.2791 55V51.3333ZM52.1124 27.5C52.1124 30.6298 51.4959 33.729 50.2982 36.6206C49.1004 39.5122 47.3449 42.1396 45.1318 44.3527C42.9186 46.5658 40.2913 48.3214 37.3997 49.5191C34.5081 50.7169 31.4089 51.3333 28.2791 51.3333V55C35.5725 55 42.5672 52.1027 47.7245 46.9454C52.8817 41.7882 55.7791 34.7935 55.7791 27.5H52.1124ZM28.2791 3.66667C31.4089 3.66667 34.5081 4.28313 37.3997 5.48087C40.2913 6.67861 42.9186 8.43416 45.1318 10.6473C47.3449 12.8604 49.1004 15.4878 50.2982 18.3794C51.4959 21.271 52.1124 24.3702 52.1124 27.5H55.7791C55.7791 20.2065 52.8817 13.2118 47.7245 8.05456C42.5672 2.89731 35.5725 0 28.2791 0V3.66667ZM28.2791 0C20.9856 0 13.9909 2.89731 8.83362 8.05456C3.67637 13.2118 0.779053 20.2065 0.779053 27.5H4.44572C4.44572 21.179 6.95672 15.1169 11.4263 10.6473C15.896 6.17767 21.9581 3.66667 28.2791 3.66667V0ZM19.1124 44V16.5H15.4457V44H19.1124ZM15.7941 17.5743L39.6274 50.5743L42.5974 48.4257L18.7641 15.4257L15.7941 17.5743ZM37.4457 14.6667V36.6667H41.1124V14.6667H37.4457Z" fill="#5C5C5C"/>
</g>
<defs>
<clipPath id="clip0_63_259">
<rect width="55" height="55" fill="white" transform="translate(0.779053)"/>
</clipPath>
</defs>
</svg>
