<svg width="53" height="59" viewBox="0 0 53 59" fill="none" xmlns="http://www.w3.org/2000/svg">
<path d="M26.7791 0C25.9991 0 25.1902 0.202222 24.5258 0.577777L3.03245 13C1.64578 13.8089 0.779114 15.3111 0.779114 16.9289V41.7155C0.779114 43.3333 1.64578 44.8355 3.03245 45.6444L8.66578 48.88C11.4102 50.2089 12.3347 50.2378 13.6058 50.2378C17.6502 50.2378 19.9902 47.7822 19.9902 43.5067V19.0378C19.9902 18.6911 19.7013 18.4022 19.3547 18.4022H16.668C16.2924 18.4022 16.0036 18.6911 16.0036 19.0378V43.5067C16.0036 45.4133 14.0391 47.2911 10.8902 45.7022L4.968 42.3222C4.87074 42.2535 4.7912 42.1627 4.73595 42.0572C4.68069 41.9517 4.65131 41.8346 4.65023 41.7155V16.9289C4.65023 16.6689 4.76578 16.4378 4.968 16.3222L26.4613 3.92889C26.6347 3.81333 26.9236 3.81333 27.0969 3.92889L48.5902 16.3222C48.7924 16.4378 48.908 16.6689 48.908 16.9289V41.7155C48.908 41.9467 48.7924 42.1778 48.5902 42.3222L27.0969 54.7155C26.9236 54.8311 26.6347 54.8311 26.4324 54.7155L21.0013 51.4222C20.7702 51.3355 20.5391 51.3066 20.3947 51.3933C18.8636 52.26 18.5747 52.4333 17.1591 52.8666C16.8124 52.9822 16.2636 53.1844 17.3613 53.7911L24.5258 58.0378C25.2191 58.4422 25.9702 58.6444 26.7791 58.6444C27.588 58.6444 28.3391 58.4422 29.0324 58.0378L50.5258 45.6444C51.9124 44.8355 52.7791 43.3333 52.7791 41.7155V16.9289C52.7791 15.3111 51.9124 13.8089 50.5258 13L29.0324 0.577777C28.368 0.202222 27.588 0 26.7791 0ZM32.5569 17.7667C26.4324 17.7667 22.7636 20.3378 22.7636 24.6711C22.7636 29.3222 26.4036 30.68 32.2969 31.2578C39.3169 31.9511 39.8658 32.9911 39.8658 34.3778C39.8658 36.7755 37.9302 37.7867 33.4236 37.7867C27.7036 37.7867 26.4902 36.3711 26.0569 33.54C26.0265 33.3937 25.9468 33.2622 25.8311 33.1676C25.7154 33.0729 25.5708 33.0208 25.4213 33.02H22.648C22.3013 33.02 22.0413 33.28 22.0413 33.6555C22.0413 37.2378 24.0058 41.5711 33.4236 41.5711C40.2124 41.5711 44.1124 38.8844 44.1124 34.2044C44.1124 29.5533 40.9924 28.34 34.3769 27.4444C27.7036 26.5778 27.0391 26.1155 27.0391 24.5555C27.0391 23.2555 27.6169 21.5222 32.5569 21.5222C36.8902 21.5222 38.5947 22.4755 39.2591 25.4511C39.3169 25.74 39.5769 25.9422 39.8658 25.9422H42.668C42.8124 25.9422 42.9858 25.8844 43.1013 25.74C43.2169 25.6244 43.3036 25.4511 43.2458 25.2778C42.8413 20.1355 39.4324 17.7667 32.5569 17.7667Z" fill="#5C5C5C"/>
</svg>
