<svg width="36" height="36" viewBox="0 0 36 36" fill="none" xmlns="http://www.w3.org/2000/svg">
<path d="M29.875 4H6.25C5.65326 4 5.08097 4.23705 4.65901 4.65901C4.23705 5.08097 4 5.65326 4 6.25V29.875C4 30.4717 4.23705 31.044 4.65901 31.466C5.08097 31.8879 5.65326 32.125 6.25 32.125H29.875C30.4717 32.125 31.044 31.8879 31.466 31.466C31.8879 31.044 32.125 30.4717 32.125 29.875V6.25C32.125 5.65326 31.8879 5.08097 31.466 4.65901C31.044 4.23705 30.4717 4 29.875 4ZM13.5625 24.8125C13.5625 25.1109 13.444 25.397 13.233 25.608C13.022 25.819 12.7359 25.9375 12.4375 25.9375C12.1391 25.9375 11.853 25.819 11.642 25.608C11.431 25.397 11.3125 25.1109 11.3125 24.8125V15.8125C11.3125 15.5141 11.431 15.228 11.642 15.017C11.853 14.806 12.1391 14.6875 12.4375 14.6875C12.7359 14.6875 13.022 14.806 13.233 15.017C13.444 15.228 13.5625 15.5141 13.5625 15.8125V24.8125ZM12.4375 13C12.1037 13 11.7775 12.901 11.5 12.7156C11.2225 12.5302 11.0062 12.2666 10.8785 11.9583C10.7507 11.6499 10.7173 11.3106 10.7824 10.9833C10.8475 10.6559 11.0083 10.3553 11.2443 10.1193C11.4803 9.88326 11.7809 9.72254 12.1083 9.65742C12.4356 9.59231 12.7749 9.62573 13.0833 9.75345C13.3916 9.88118 13.6552 10.0975 13.8406 10.375C14.026 10.6525 14.125 10.9787 14.125 11.3125C14.125 11.7601 13.9472 12.1893 13.6307 12.5057C13.3143 12.8222 12.8851 13 12.4375 13ZM25.9375 24.8125C25.9375 25.1109 25.819 25.397 25.608 25.608C25.397 25.819 25.1109 25.9375 24.8125 25.9375C24.5141 25.9375 24.228 25.819 24.017 25.608C23.806 25.397 23.6875 25.1109 23.6875 24.8125V19.75C23.6875 19.0041 23.3912 18.2887 22.8637 17.7613C22.3363 17.2338 21.6209 16.9375 20.875 16.9375C20.1291 16.9375 19.4137 17.2338 18.8863 17.7613C18.3588 18.2887 18.0625 19.0041 18.0625 19.75V24.8125C18.0625 25.1109 17.944 25.397 17.733 25.608C17.522 25.819 17.2359 25.9375 16.9375 25.9375C16.6391 25.9375 16.353 25.819 16.142 25.608C15.931 25.397 15.8125 25.1109 15.8125 24.8125V15.8125C15.8117 15.5356 15.9131 15.2682 16.0971 15.0614C16.2812 14.8546 16.5351 14.7229 16.8102 14.6916C17.0852 14.6602 17.3622 14.7314 17.5881 14.8915C17.814 15.0517 17.9729 15.2894 18.0344 15.5594C18.7956 15.0434 19.683 14.7444 20.6013 14.6947C21.5196 14.645 22.4341 14.8464 23.2466 15.2772C24.0591 15.708 24.7389 16.352 25.213 17.14C25.6871 17.9281 25.9375 18.8304 25.9375 19.75V24.8125Z" fill="#181818"/>
</svg>
