<svg width="28" height="28" viewBox="0 0 28 28" fill="none" xmlns="http://www.w3.org/2000/svg">
<path d="M26.8734 8.49843L23.5703 11.7906C22.9141 19.4359 16.4609 25.375 8.75 25.375C7.16406 25.375 5.85156 25.1234 4.85625 24.6312C4.05781 24.2266 3.72969 23.8 3.64219 23.6687C3.56979 23.5588 3.52314 23.4339 3.50571 23.3034C3.48829 23.1729 3.50053 23.0402 3.54153 22.9151C3.58253 22.79 3.65123 22.6757 3.74252 22.5809C3.8338 22.486 3.94532 22.413 4.06875 22.3672C4.09063 22.3562 6.67188 21.3719 8.34531 19.4797C7.3075 18.7407 6.39532 17.8396 5.64375 16.8109C4.14531 14.7766 2.55938 11.2437 3.51094 5.97187C3.54085 5.81514 3.61254 5.6694 3.71842 5.55004C3.8243 5.43068 3.96046 5.34213 4.1125 5.29375C4.26503 5.2438 4.42835 5.23677 4.58461 5.27342C4.74087 5.31008 4.88403 5.389 4.99844 5.50156C5.03125 5.54531 8.67344 9.13281 13.125 10.2922V9.625C13.1293 8.93124 13.2702 8.24513 13.5397 7.60583C13.8091 6.96654 14.2019 6.38657 14.6955 5.89906C15.1891 5.41155 15.7739 5.02604 16.4165 4.76454C17.0591 4.50304 17.7469 4.37067 18.4406 4.375C19.3512 4.38798 20.2428 4.6366 21.0287 5.09663C21.8146 5.55666 22.4679 6.21241 22.925 7H26.25C26.4228 6.99946 26.5918 7.05006 26.7358 7.14543C26.8799 7.24081 26.9924 7.37668 27.0594 7.53593C27.1224 7.69756 27.1384 7.87372 27.1055 8.04405C27.0726 8.21439 26.9921 8.37192 26.8734 8.49843Z" fill="#181818"/>
</svg>
