<svg width="53" height="52" viewBox="0 0 53 52" fill="none" xmlns="http://www.w3.org/2000/svg">
<path d="M37.1899 2.16666C35.2826 2.18065 33.3858 2.45028 31.5501 2.96832L31.4201 3.00732C30.2637 2.8093 29.0939 2.69992 27.9209 2.68016C25.5094 2.63899 23.4359 3.20666 21.7676 4.15349C20.1209 3.59882 16.7062 2.64332 13.1074 2.83399C10.6006 2.96616 7.86625 3.70499 5.84041 5.78066C3.81891 7.85632 2.75075 11.0673 2.97608 15.4375C3.03675 16.6443 3.38991 18.6095 3.97925 21.1575C4.56425 23.7033 5.39191 26.6825 6.42108 29.4017C7.45025 32.123 8.57908 34.567 10.3427 36.2267C11.2224 37.0587 12.4336 37.7585 13.8614 37.7C14.8646 37.661 15.7724 37.2342 16.5546 36.6037C16.9359 37.0912 17.3432 37.3035 17.7137 37.5007C18.1796 37.7477 18.6346 37.9167 19.1047 38.0293C20.4068 38.3626 21.7628 38.4297 23.0914 38.2265C23.6699 38.1333 24.2787 37.9513 24.8854 37.6913C24.9071 38.3457 24.9331 38.987 24.9612 39.637C25.0436 41.6953 25.0977 43.5955 25.7347 45.2617C25.8366 45.5347 26.1161 46.9365 27.2232 48.1737C28.3282 49.413 30.4949 50.1843 32.9606 49.673C34.7004 49.3112 36.9147 48.659 38.3838 46.631C39.8354 44.6247 40.4919 41.7452 40.6219 37.0782C40.6544 36.8268 40.6934 36.6123 40.7346 36.4108L41.0812 36.4412H41.1202C42.9771 36.5235 44.9921 36.2678 46.6756 35.5095C48.1662 34.8378 49.2929 34.1618 50.1141 32.9593C50.3199 32.6625 50.5452 32.3028 50.6059 31.681C50.6666 31.0635 50.3026 30.0928 49.6937 29.6465C48.4739 28.7495 47.7091 29.0897 46.8879 29.2565C46.0797 29.4298 45.2564 29.5252 44.4266 29.5447C46.7948 25.6793 48.4912 21.5713 49.4597 17.9357C50.0317 15.7907 50.3546 13.8125 50.3806 12.0835C50.4066 10.3545 50.2614 8.82266 49.1932 7.49666C45.8544 3.35832 41.1592 2.21432 37.5279 2.17532C37.4152 2.17316 37.3026 2.17099 37.1899 2.17316V2.16666ZM37.0946 3.43849C40.5287 3.40599 44.9184 4.34199 48.0687 8.24849C48.7772 9.12599 48.9874 10.4087 48.9636 11.9903C48.9376 13.5698 48.6364 15.4592 48.0861 17.5305C47.0179 21.5432 44.9986 26.2188 42.1537 30.4178C42.255 30.4874 42.3641 30.5449 42.4787 30.589C43.0724 30.8273 44.4244 31.031 47.1262 30.4937C47.8044 30.3528 48.3027 30.2597 48.8184 30.641C48.9421 30.7432 49.0403 30.8727 49.1053 31.0194C49.1704 31.166 49.2005 31.3257 49.1932 31.486C49.1651 31.7281 49.0731 31.9584 48.9267 32.1533C48.4067 32.9138 47.3754 33.6353 46.0537 34.229C44.8859 34.7577 43.2089 35.0328 41.7226 35.0502C40.9772 35.0567 40.2904 35.0003 39.7076 34.8248L39.6686 34.8118C39.4432 36.9157 38.9254 41.0735 38.5896 42.9693C38.3187 44.499 37.8464 45.7145 36.9429 46.6245C36.0416 47.5345 34.7676 48.0827 33.0516 48.4402C30.9261 48.8822 29.3769 48.4055 28.3781 47.5887C27.3814 46.7762 26.9242 45.695 26.6491 45.032C26.4606 44.577 26.3631 43.9855 26.2677 43.1947C26.1631 42.2478 26.093 41.2975 26.0576 40.3455C25.9951 38.6758 25.9749 37.0047 25.9969 35.334C25.1086 36.1227 24.0036 36.647 22.8184 36.8442C21.4101 37.076 20.1491 36.8485 19.3972 36.6665C19.0286 36.5758 18.6722 36.4413 18.3356 36.2657C17.9846 36.0858 17.6531 35.8822 17.4321 35.4792C17.3019 35.2491 17.2603 34.9794 17.3151 34.7208C17.3859 34.4581 17.5431 34.2268 17.7614 34.0643C18.1687 33.7437 18.7039 33.566 19.5121 33.4013C20.9854 33.1088 21.4989 32.9073 21.8109 32.6668C22.0774 32.461 22.3786 32.045 22.9116 31.4318C22.909 31.4051 22.9068 31.3784 22.9051 31.3517C21.9546 31.3258 21.0228 31.0819 20.1816 30.6388C19.8761 30.953 18.3074 32.5628 16.3942 34.7945C15.5904 35.7283 14.7021 36.2635 13.7639 36.3025C12.8257 36.3415 11.9786 35.8822 11.2592 35.2062C9.81841 33.8498 8.67008 31.5163 7.66908 28.8795C6.67241 26.2405 5.85775 23.3025 5.28141 20.8C4.70075 18.2975 4.35841 16.2803 4.31075 15.3075C4.09408 11.1713 5.09075 8.38499 6.80241 6.62782C8.51408 4.87066 10.8584 4.20549 13.1464 4.07766C17.2501 3.84799 21.1479 5.23682 21.9366 5.53582C23.4554 4.53482 25.4119 3.91082 27.8581 3.94982C29.0175 3.96568 30.1716 4.11102 31.2987 4.38316L31.3399 4.36582C31.8361 4.19682 32.3409 4.05382 32.8522 3.94116C34.2442 3.62635 35.6654 3.45932 37.0924 3.44282L37.0946 3.43849ZM37.4044 4.76882H37.1076C35.9353 4.78464 34.7672 4.91233 33.6192 5.15016C35.8981 6.14251 37.9003 7.67612 39.4519 9.61782C40.3916 10.7797 41.1713 12.0622 41.7702 13.4312C41.9956 13.9555 42.1472 14.3997 42.2317 14.742C42.2751 14.9153 42.3054 15.0605 42.3141 15.2122C42.3224 15.3082 42.3144 15.4049 42.2902 15.4982L42.2772 15.5242C42.3401 17.264 41.8959 18.4427 41.8417 20.1023C41.8006 21.307 42.1169 22.7218 42.1949 24.2623C42.2686 25.714 42.0887 27.3065 41.1181 28.8708C41.2004 28.9662 41.2741 29.0615 41.3521 29.1568C43.9196 25.2352 45.7721 20.8932 46.7579 17.1947C47.2844 15.2013 47.5661 13.3965 47.5899 11.9665C47.6116 10.5365 47.3364 9.49866 46.9854 9.06749C44.2381 5.65932 40.5222 4.79266 37.4044 4.76882ZM27.6002 5.27799C25.1801 5.28232 23.4424 5.99299 22.1272 7.05466C20.7687 8.15316 19.8587 9.65466 19.2607 11.1952C18.6819 12.7346 18.3279 14.3495 18.2099 15.99L18.2381 15.9748C18.9682 15.5762 19.9281 15.1797 20.9551 14.95C21.9842 14.7203 23.0914 14.6488 24.0946 15.0258C25.0977 15.405 25.9276 16.2912 26.2288 17.6388C27.6696 24.1085 25.7802 26.5135 25.0826 28.327C24.8186 28.9845 24.5921 29.6566 24.4044 30.3398C24.4932 30.3182 24.5821 30.2965 24.6687 30.2878C25.0494 30.2672 25.4291 30.3417 25.7737 30.5045C26.4757 30.7862 26.9567 31.3755 27.2167 32.0515C27.2839 32.2292 27.3337 32.4198 27.3619 32.6148C27.3922 32.6972 27.4052 32.7817 27.4031 32.8683C27.3253 35.3422 27.334 37.8181 27.4291 40.2913C27.4767 41.3617 27.5461 42.302 27.6349 43.0452C27.7216 43.7862 27.8472 44.3495 27.9274 44.5402C28.1874 45.1772 28.5709 46.0092 29.2642 46.5747C29.9576 47.138 30.9477 47.515 32.7612 47.138C34.3342 46.8108 35.3049 46.358 35.9549 45.7015C36.6006 45.0493 36.9884 44.1415 37.2354 42.7483C37.6059 40.6618 38.3512 34.6147 38.4401 33.475C38.4011 32.6192 38.5311 31.9583 38.8127 31.4557C39.1052 30.94 39.5559 30.6237 39.9437 30.4525C40.1387 30.3658 40.3207 30.3095 40.4702 30.2683C40.3116 30.0475 40.1454 29.8321 39.9719 29.6227C39.4133 28.966 38.9541 28.2309 38.6091 27.4408C38.4443 27.1151 38.2687 26.795 38.0826 26.481C37.8117 26.0043 37.4673 25.4085 37.1076 24.739C36.3861 23.3978 35.6017 21.7728 35.1944 20.189C34.7892 18.6095 34.7286 16.9737 35.7686 15.8188C36.6916 14.794 38.3079 14.3693 40.7367 14.6077C40.6652 14.3997 40.6219 14.2263 40.5006 13.949C39.9496 12.6917 39.2333 11.5134 38.3707 10.4455C36.3124 7.89316 32.9823 5.36249 27.8342 5.28016L27.6002 5.27799ZM14.0022 5.37982C13.7422 5.37982 13.4822 5.38849 13.2222 5.40149C11.1552 5.51632 9.20091 6.09916 7.80341 7.53782C6.40158 8.97432 5.48075 11.3317 5.68008 15.236C5.72125 15.9727 6.05275 18.044 6.62041 20.501C7.18808 22.9623 7.99408 25.8548 8.96041 28.4093C9.92675 30.966 11.1011 33.1912 12.2147 34.2442C12.7759 34.7707 13.2634 34.983 13.7054 34.9657C14.1496 34.944 14.6826 34.697 15.3369 33.9365C16.5286 32.542 17.7642 31.1857 19.0419 29.8697C18.1396 29.1122 17.4447 28.1377 17.0226 27.0378C16.606 25.9477 16.4791 24.7683 16.6542 23.6145C16.8644 22.1455 16.8926 20.7718 16.8687 19.6885C16.8427 18.6312 16.7647 17.9292 16.7647 17.4893V17.4287C16.7628 15.1388 17.1731 12.8673 17.9759 10.7228C18.5479 9.24516 19.4016 7.74366 20.6821 6.52816C19.4254 6.12732 17.1937 5.51632 14.7779 5.40149C14.5181 5.38794 14.2581 5.38072 13.9979 5.37982H14.0022ZM39.3826 15.8708C37.9937 15.8882 37.2138 16.237 36.8043 16.692C36.2236 17.3377 36.1694 18.4687 36.5291 19.864C36.8866 21.2593 37.6276 22.8215 38.3252 24.1172C38.6719 24.7672 39.0099 25.3522 39.2829 25.8245C39.5581 26.3012 39.7596 26.6392 39.8809 26.9295C39.9936 27.1938 40.1192 27.4278 40.2449 27.6467C40.7822 26.5438 40.8797 25.4627 40.8234 24.3338C40.7519 22.9385 40.4182 21.5107 40.4681 20.0655C40.5222 18.3755 40.8667 17.2727 40.8971 15.9662C40.3947 15.903 39.8889 15.8712 39.3826 15.8708ZM22.5259 16.0983C22.1015 16.1023 21.6788 16.1517 21.2649 16.2457C20.4423 16.4394 19.6484 16.7394 18.9032 17.1383C18.6541 17.2683 18.4136 17.42 18.1882 17.5912L18.1449 17.6302C18.1579 17.9205 18.2164 18.6247 18.2424 19.6582C18.2641 20.7913 18.2381 22.2365 18.0127 23.7965C17.5231 27.1938 20.0624 30.0062 23.0481 30.0105C23.2214 29.3128 23.5096 28.6065 23.7956 27.8612C24.6276 25.688 26.2634 24.1042 24.8854 17.9183C24.6601 16.9065 24.2137 16.497 23.5984 16.2652C23.2535 16.1469 22.8904 16.0904 22.5259 16.0983ZM38.7326 16.5035H38.8366C38.9709 16.5078 39.0966 16.523 39.2049 16.5468C39.3046 16.5667 39.4 16.6041 39.4866 16.6573C39.5258 16.6809 39.5597 16.7123 39.5862 16.7496C39.6126 16.7869 39.6311 16.8292 39.6404 16.874V16.8913C39.6438 16.9863 39.6181 17.08 39.5667 17.16C39.5059 17.269 39.4301 17.3689 39.3414 17.4568C39.1318 17.6802 38.8548 17.8286 38.5527 17.8793C38.2569 17.9144 37.9583 17.8413 37.7121 17.6735C37.6124 17.6087 37.5227 17.5299 37.4456 17.4395C37.3794 17.3697 37.3343 17.2825 37.3156 17.1882C37.311 17.1418 37.3164 17.0951 37.3313 17.051C37.3463 17.0069 37.3704 16.9665 37.4022 16.9325C37.4702 16.8584 37.5519 16.798 37.6427 16.7548C37.985 16.5947 38.3569 16.5076 38.7347 16.4992L38.7326 16.5035ZM22.7252 16.8372C22.8336 16.8372 22.9484 16.848 23.0654 16.8632C23.3774 16.9065 23.6569 16.9867 23.8692 17.1058C23.9732 17.16 24.0642 17.2293 24.1422 17.316C24.1828 17.3622 24.2137 17.4159 24.2332 17.4742C24.2527 17.532 24.2593 17.5933 24.2527 17.654C24.2326 17.7687 24.1791 17.875 24.0989 17.9595C24.0149 18.0602 23.9163 18.1479 23.8064 18.2195C23.5374 18.4029 23.2109 18.4822 22.8877 18.4427C22.5596 18.3907 22.2579 18.2314 22.0297 17.9898C21.9336 17.8937 21.8519 17.7843 21.7871 17.6648C21.7196 17.5609 21.6898 17.437 21.7026 17.3138C21.7329 17.0972 21.9171 16.9888 22.0926 16.9238C22.2959 16.8614 22.5085 16.835 22.7209 16.8458L22.7252 16.8372ZM41.2719 31.4232H41.2654C40.9642 31.5315 40.7172 31.5748 40.5071 31.6615C40.298 31.7397 40.1247 31.8914 40.0196 32.0883C39.8896 32.3158 39.7812 32.721 39.8137 33.41C39.9069 33.4719 40.0093 33.5187 40.1171 33.5487C40.4659 33.6527 41.0531 33.722 41.7096 33.7112C43.0139 33.696 44.6216 33.4013 45.4752 33.0157C46.1751 32.6993 46.8251 32.2877 47.4058 31.7937C44.5522 32.3657 42.9424 32.214 41.9522 31.8175C41.7073 31.7193 41.4781 31.5857 41.2719 31.421V31.4232ZM24.8312 31.6095H24.7879C24.6796 31.6182 24.5214 31.6528 24.2181 31.9822C23.5031 32.7578 23.2561 33.2432 22.6667 33.6982C22.0817 34.1532 21.3169 34.3937 19.7916 34.697C19.3084 34.7923 19.0332 34.8985 18.8469 34.983C18.9076 35.0307 18.9011 35.0437 18.9899 35.0892C19.2131 35.2083 19.5012 35.3123 19.7309 35.3708C20.3874 35.529 21.4642 35.7153 22.5887 35.529C23.7111 35.3427 24.8811 34.8205 25.8777 33.4642C26.0511 33.2302 26.0684 32.8835 25.9276 32.5108C25.7824 32.1425 25.4704 31.8218 25.2494 31.7308C25.1171 31.6698 24.976 31.6303 24.8312 31.6138V31.6095Z" fill="#5C5C5C"/>
</svg>
