<svg width="52" height="52" viewBox="0 0 52 52" fill="none" xmlns="http://www.w3.org/2000/svg">
<path d="M38.168 14.8525V19.6722C38.1484 21.4741 37.4308 23.1983 36.1662 24.482C34.9015 25.7658 33.1883 26.5091 31.3869 26.5557H20.5449C19.0993 26.5845 17.7223 27.1776 16.7081 28.2082C15.6939 29.2387 15.123 30.6251 15.1174 32.071V42.406C15.1174 45.3472 17.6751 47.0795 20.5449 47.9228C24.0746 49.0268 27.8572 49.0268 31.3869 47.9228C34.1201 47.1315 36.8144 45.539 36.8144 42.4076V38.2687H25.9724V36.8891H42.2419C45.396 36.8891 46.5725 34.6888 47.6694 31.3868C48.7836 27.7933 48.7836 23.9466 47.6694 20.3531C46.8894 17.2136 45.4009 14.8508 42.2419 14.8508L38.168 14.8525ZM32.071 41.028C32.4817 41.0218 32.8849 41.1381 33.2292 41.3619C33.5736 41.5858 33.8435 41.907 34.0047 42.2848C34.1658 42.6626 34.2108 43.0798 34.134 43.4833C34.0571 43.8868 33.862 44.2582 33.5733 44.5504C33.2846 44.8425 32.9155 45.0421 32.5129 45.1237C32.1104 45.2053 31.6927 45.1653 31.313 45.0087C30.9333 44.852 30.6089 44.5859 30.381 44.2443C30.153 43.9026 30.032 43.5008 30.0332 43.0901C30.0311 42.8207 30.0822 42.5535 30.1835 42.3038C30.2848 42.0541 30.4344 41.8269 30.6237 41.6352C30.813 41.4435 31.0383 41.291 31.2867 41.1865C31.535 41.082 31.8016 41.0292 32.071 41.028Z" fill="#5C5C5C"/>
<path d="M25.7319 3.25004C23.9935 3.25218 22.2584 3.40058 20.5449 3.69366C15.951 4.50454 15.1174 6.20266 15.1174 9.33566V13.4713H25.9724V14.8509H11.0435C9.44566 14.8214 7.8888 15.3575 6.64797 16.3647C5.40713 17.3718 4.56218 18.785 4.26237 20.3548C3.24343 23.9616 3.24343 27.7801 4.26237 31.3869C5.03425 34.5995 6.877 36.8892 10.0311 36.8892H13.7637V31.9313C13.8034 30.1487 14.5317 28.4508 15.796 27.1935C17.0602 25.9363 18.7621 25.2173 20.5449 25.1875H31.3869C32.1055 25.1822 32.8161 25.0353 33.4779 24.7552C34.1397 24.475 34.7398 24.0672 35.2439 23.555C35.748 23.0428 36.1461 22.4362 36.4156 21.77C36.6851 21.1037 36.8206 20.3909 36.8144 19.6723V9.33566C36.7231 7.90524 36.1277 6.55348 35.1341 5.52052C34.1404 4.48756 32.8127 3.84027 31.3869 3.69366C29.5176 3.38789 27.626 3.23949 25.7319 3.25004ZM19.8624 6.57804C20.2725 6.57192 20.6752 6.68785 21.0192 6.91112C21.3633 7.13438 21.6333 7.45489 21.7948 7.83192C21.9563 8.20895 22.002 8.62548 21.9263 9.02858C21.8505 9.43169 21.6566 9.80316 21.3692 10.0958C21.0818 10.3885 20.7139 10.5891 20.3123 10.6722C19.9106 10.7553 19.4933 10.7171 19.1134 10.5624C18.7335 10.4078 18.4082 10.1437 18.1787 9.80379C17.9492 9.46383 17.826 9.06332 17.8246 8.65316C17.8207 8.10807 18.033 7.58365 18.4149 7.19472C18.7968 6.80579 19.3173 6.58404 19.8624 6.57804Z" fill="#5C5C5C"/>
</svg>
