<svg width="62" height="61" viewBox="0 0 62 61" fill="none" xmlns="http://www.w3.org/2000/svg">
<path d="M48.4353 22.1125L46.7197 21.5406C46.7197 21.1594 46.9103 20.7781 46.9103 20.3969C48.2447 14.1062 47.2915 8.95936 44.4322 7.24374C41.5728 5.71874 36.9978 7.24374 32.4228 11.2469C32.0415 11.6281 31.4697 12.0094 31.0884 12.3906C30.7072 12.2 30.5165 11.8187 30.1353 11.6281C25.5603 7.43436 20.7947 5.71874 17.9353 7.43436C15.0759 8.95936 14.3134 13.9156 15.4572 19.825C15.6478 20.3969 15.6478 20.9687 15.8384 21.5406C15.0759 21.7312 14.5041 21.9219 13.9322 22.1125C8.21343 24.0187 4.59155 27.2594 4.59155 30.3094C4.59155 33.55 8.40405 36.9812 14.3134 38.8875C14.6947 39.0781 15.2666 39.2687 15.8384 39.2687C15.6478 39.8406 15.4572 40.6031 15.4572 41.175C14.3134 47.0844 15.2666 51.6594 17.9353 53.375C20.7947 55.0906 25.5603 53.375 30.3259 49.1812C30.7072 48.8 31.0884 48.4187 31.4697 48.2281C31.8509 48.6094 32.4228 49.1812 32.9947 49.5625C37.5697 53.5656 41.954 55.0906 44.8134 53.375C47.6728 51.6594 48.6259 46.7031 47.4822 40.6031C47.4822 40.2219 47.2915 39.65 47.1009 39.0781C47.4822 38.8875 47.8634 38.8875 48.054 38.6969C54.154 36.6 58.1572 33.3594 58.1572 30.1187C57.9665 27.2594 54.154 24.2094 48.4353 22.1125ZM34.1384 13.1531C38.1415 9.72186 41.7634 8.38749 43.479 9.34061C45.1947 10.2937 45.9572 14.4875 44.8134 20.0156C44.8134 20.3969 44.6228 20.7781 44.6228 21.1594C42.3353 20.5875 39.8572 20.2062 37.5697 20.0156C36.2353 18.1094 34.7103 16.2031 32.9947 14.2969L34.1384 13.1531ZM20.4134 33.1687C20.9853 34.1219 21.3666 35.075 21.9384 36.0281C22.5103 36.9812 23.0822 37.9344 23.6541 38.6969C21.9384 38.5062 20.4134 38.3156 18.6978 37.9344C19.0791 36.4094 19.6509 34.8844 20.4134 33.1687ZM20.4134 27.8312C19.6509 26.3062 19.2697 24.7812 18.6978 23.2562C20.2228 22.875 21.9384 22.6844 23.4634 22.4937C22.8916 23.4469 22.3197 24.2094 21.7478 25.1625C21.3666 25.925 20.7947 26.8781 20.4134 27.8312ZM21.5572 30.5C22.3197 28.975 23.0822 27.6406 23.8447 26.1156C24.6072 24.7812 25.5603 23.2562 26.5134 21.9219C28.0384 21.7312 29.7541 21.7312 31.4697 21.7312C33.1853 21.7312 34.7103 21.7312 36.4259 21.9219C37.3791 23.2562 38.1415 24.5906 38.904 26.1156C39.6665 27.45 40.4291 28.975 41.1916 30.5C40.4291 32.025 39.6665 33.3594 38.904 34.8844C38.1415 36.2187 37.1884 37.7437 36.4259 39.0781C34.9009 39.2687 33.1853 39.2687 31.4697 39.2687C29.7541 39.2687 28.229 39.2687 26.7041 39.0781C25.7509 37.7437 24.9884 36.4094 24.0353 34.8844C23.0822 33.3594 22.3197 32.025 21.5572 30.5ZM40.6197 36.0281C41.1915 35.075 41.7634 34.1219 42.1447 33.1687C42.9072 34.6937 43.479 36.2187 43.8603 37.9344C42.1447 38.3156 40.6197 38.5062 38.904 38.6969C39.6665 37.7437 40.2384 36.7906 40.6197 36.0281ZM42.1447 27.8312C41.5728 26.8781 41.1915 25.925 40.6197 24.9719C40.0478 24.0187 39.4759 23.2562 39.0947 22.3031C40.8103 22.4937 42.3353 22.875 44.0509 23.0656C43.479 24.7812 42.9072 26.3062 42.1447 27.8312ZM31.279 15.8219C32.4228 16.9656 33.3759 18.3 34.3291 19.6344C32.2322 19.4437 30.1353 19.4437 28.0384 19.6344C29.1822 18.3 30.3259 16.9656 31.279 15.8219ZM19.0791 9.34061C20.7947 8.38749 24.7978 9.72186 28.9916 13.5344L29.754 14.2969C28.0384 16.0125 26.5134 17.9187 25.1791 20.0156C22.7009 20.2062 20.4134 20.5875 18.1259 21.1594C17.9353 20.5875 17.9353 20.0156 17.7447 19.4437C16.6009 14.2969 17.3634 10.2937 19.0791 9.34061ZM16.4103 37.3625C16.0291 37.1719 15.4572 37.1719 15.0759 36.9812C12.4072 36.0281 10.3103 34.8844 8.7853 33.7406C7.45093 32.5969 6.87905 31.4531 6.87905 30.5C6.87905 28.5937 9.73843 26.1156 14.6947 24.4C15.2666 24.2094 15.8384 24.0187 16.6009 23.8281C17.1728 26.1156 17.9353 28.4031 19.0791 30.5C17.9353 32.7875 17.1728 35.075 16.4103 37.3625ZM28.8009 47.8469C26.7041 49.7531 24.6072 50.8969 22.8916 51.6594C21.1759 52.2312 20.0322 52.2312 19.0791 51.85C17.3634 50.8969 16.6009 47.0844 17.5541 42.1281C17.7447 41.3656 17.9353 40.7937 17.9353 40.0312C20.2228 40.6031 22.7009 40.9844 25.1791 40.9844C26.5134 42.8906 28.0384 44.7969 29.754 46.7031C29.3728 47.0844 29.1822 47.4656 28.8009 47.8469ZM31.279 45.1781C30.1353 44.0344 29.1822 42.7 28.0384 41.3656H34.3291C33.5665 42.7 32.4228 44.0344 31.279 45.1781ZM45.1947 48.4187C44.8134 50.1344 44.2415 51.2781 43.479 51.6594C41.7634 52.6125 38.1415 51.2781 34.3291 48.0375C33.9478 47.6562 33.3759 47.275 32.9947 46.8937C34.5197 45.1781 36.0447 43.2719 37.3791 41.175C39.8572 40.9844 42.1447 40.6031 44.6228 40.0312C44.8134 40.4125 44.8134 40.9844 45.004 41.3656C45.5759 44.0344 45.5759 46.5125 45.1947 48.4187ZM47.1009 36.9812C46.7197 36.9812 46.529 37.1719 46.1478 37.1719C45.3853 34.8844 44.4322 32.5969 43.479 30.3094C44.4322 28.2125 45.3853 25.925 46.1478 23.6375C46.7197 23.8281 47.2915 24.0187 47.6728 24.2094C52.629 25.925 55.679 28.4031 55.679 30.3094C55.679 32.5969 52.4384 35.2656 47.1009 36.9812Z" fill="#5C5C5C"/>
<path d="M31.279 35.2656C32.2321 35.2656 33.1853 35.075 33.9478 34.5031C34.7103 33.9312 35.2821 33.1687 35.6634 32.4062C36.0446 31.4531 36.0446 30.5 35.854 29.5469C35.6634 28.5937 35.2821 27.8312 34.5196 27.0687C33.9478 26.3062 32.9946 25.925 32.0415 25.7344C31.0884 25.5437 30.1353 25.7344 29.1821 25.925C28.229 26.3062 27.4665 26.8781 27.0853 27.6406C26.5134 28.4031 26.3228 29.3562 26.3228 30.3094C26.3228 30.8812 26.5134 31.6437 26.704 32.2156C26.8946 32.7875 27.2759 33.3594 27.6571 33.7406C28.0384 34.1219 28.6103 34.5031 29.1821 34.6937C29.9446 35.075 30.7071 35.2656 31.279 35.2656Z" fill="#5C5C5C"/>
</svg>
