<svg width="52" height="52" viewBox="0 0 52 52" fill="none" xmlns="http://www.w3.org/2000/svg">
<g clip-path="url(#clip0_63_294)">
<path d="M51.9838 31.07C51.9675 31.5689 51.3062 32.1197 49.9607 32.8217C47.1852 34.2696 32.8137 40.1846 29.7489 41.7755C26.6858 43.3745 24.9925 43.3582 22.5713 42.198C20.15 41.0475 4.85716 34.8595 2.09791 33.5481C0.726413 32.8884 0.0244131 32.3375 -0.00158691 31.8126V37.0679C-0.00158691 37.5927 0.726413 38.142 2.09791 38.8034C4.85716 40.1245 20.1598 46.3027 22.5713 47.4532C24.9925 48.6135 26.6842 48.6297 29.7489 47.0307C32.812 45.4399 47.1835 39.5232 49.9607 38.077C51.3744 37.349 52 36.7737 52 36.257V31.0765C52 31.0684 51.9919 31.0684 51.9838 31.0684V31.07ZM51.9838 22.5046C51.9578 22.9954 51.3062 23.5462 49.9607 24.2564C47.1852 25.6945 32.8137 31.6111 29.7489 33.202C26.6858 34.801 24.9925 34.7847 22.5713 33.6342C20.15 32.474 4.85716 26.2957 2.09791 24.9762C0.726413 24.3246 0.0244131 23.7656 -0.00158691 23.2407V28.496C-0.00158691 29.0209 0.726413 29.5799 2.09791 30.2315C4.85716 31.5526 20.15 37.7309 22.5713 38.8895C24.9925 40.04 26.6842 40.0579 29.7489 38.467C32.812 36.868 47.1835 30.9595 49.9607 29.5132C51.3744 28.7771 52 28.2019 52 27.6851V22.5046H51.9838ZM51.9838 13.6094C52.0098 13.0845 51.324 12.6197 49.9265 12.1111C47.2274 11.1215 32.9323 5.43399 30.1974 4.42649C27.4642 3.42711 26.3462 3.46936 23.1303 4.62149C19.9144 5.78174 4.70441 11.7471 1.99716 12.805C0.643538 13.338 -0.0178369 13.8287 0.00816309 14.3536V19.6089C0.00816309 20.1337 0.728038 20.683 2.10766 21.3444C4.85879 22.6655 20.1598 28.8437 22.581 30.0024C24.9925 31.1529 26.6939 31.1707 29.7587 29.5701C32.8137 27.9792 47.1933 22.0626 49.9704 20.6245C51.376 19.8884 52.0017 19.3131 52.0017 18.7964V13.6077L51.9838 13.6094ZM18.6193 18.5867L30.6719 16.7424L27.0319 22.074L18.6193 18.5867ZM45.2709 13.7784L37.375 16.9016L30.2494 14.0839L38.1372 10.9687L45.2709 13.7784ZM24.349 8.61574L23.1807 6.46586L26.8207 7.88774L30.2478 6.76974L29.3167 8.98786L32.812 10.2992L28.3092 10.764L27.2935 13.1934L25.6685 10.4845L20.4637 10.0197L24.349 8.61574ZM15.3693 11.6545C18.9329 11.6545 21.8108 12.7725 21.8108 14.1424C21.8108 15.522 18.9248 16.6384 15.3693 16.6384C11.8138 16.6384 8.92779 15.5204 8.92779 14.1424C8.92779 12.7709 11.8138 11.6545 15.3693 11.6545Z" fill="#5C5C5C"/>
</g>
<defs>
<clipPath id="clip0_63_294">
<rect width="52" height="52" fill="white"/>
</clipPath>
</defs>
</svg>
