<svg width="75" height="75" viewBox="0 0 75 75" fill="none" xmlns="http://www.w3.org/2000/svg">
<g clip-path="url(#clip0_20_63)">
<path d="M32.9281 2.82502L20.6313 37.625L35.625 37.7406L23.9125 72.1719L23.9125 72.1781L56.2375 26.2188L40.5438 26.2188L55.7719 2.8219L43.8219 2.8219L32.9281 2.82502ZM21.5719 15.3438C21.0894 15.344 20.6266 15.535 20.2844 15.875L0.484378 35.2656C0.171824 35.6467 0.00100693 36.1244 0.00100693 36.6172C0.00100692 37.1101 0.171824 37.5877 0.484378 37.9688L20.6344 57.9563C20.9906 58.2685 21.4482 58.4407 21.9219 58.4407C22.3956 58.4407 22.8532 58.2685 23.2094 57.9563C23.5489 57.5881 23.7374 57.1056 23.7374 56.6047C23.7374 56.1039 23.5489 55.6213 23.2094 55.2531L6.22188 37.9719C5.88436 37.6027 5.69719 37.1206 5.69719 36.6203C5.69719 36.1201 5.88436 35.638 6.22188 35.2688L22.8594 18.5688C23.0523 18.4004 23.207 18.1927 23.313 17.9595C23.419 17.7264 23.4738 17.4733 23.4738 17.2172C23.4738 16.9611 23.419 16.708 23.313 16.4749C23.207 16.2418 23.0523 16.034 22.8594 15.8656C22.5164 15.527 22.0538 15.3373 21.5719 15.3375L21.5719 15.3438ZM53.425 15.3438C52.9426 15.344 52.4798 15.535 52.1375 15.875C51.9442 16.0428 51.7891 16.2502 51.6829 16.4831C51.5766 16.716 51.5216 16.969 51.5216 17.225C51.5216 17.481 51.5766 17.734 51.6829 17.967C51.7891 18.1999 51.9442 18.4072 52.1375 18.575L69.1219 35.2719C69.461 35.6409 69.6491 36.1239 69.6491 36.625C69.6491 37.1262 69.461 37.6091 69.1219 37.9781L51.7844 55.2594C51.4462 55.6283 51.2586 56.1105 51.2586 56.611C51.2586 57.1114 51.4462 57.5936 51.7844 57.9625C52.1406 58.2748 52.5982 58.447 53.0719 58.447C53.5456 58.447 54.0032 58.2748 54.3594 57.9625L74.5156 37.975C74.8293 37.5945 75.0008 37.1166 75.0008 36.6235C75.0008 36.1303 74.8293 35.6525 74.5156 35.2719L54.7125 15.8719C54.3697 15.533 53.907 15.3432 53.425 15.3438Z" fill="#FEBA15"/>
</g>
<defs>
<clipPath id="clip0_20_63">
<rect width="75" height="75" fill="white"/>
</clipPath>
</defs>
</svg>
