<svg width="75" height="75" viewBox="0 0 75 75" fill="none" xmlns="http://www.w3.org/2000/svg">
<path d="M11.2054 53.311L38.0437 6.82971L40.4531 8.21956L13.6172 54.7031L11.2054 53.311Z" fill="#E10098"/>
<path d="M10.6523 49.5984H64.3289V52.3805H10.6523V49.5984Z" fill="#E10098"/>
<path d="M11.7164 51.1594L13.1063 48.75L39.9539 64.2515L38.5617 66.6609L11.7164 51.1594ZM35.0391 10.7578L36.4313 8.35077L63.2789 23.8523L61.8867 26.2617L35.0391 10.7578Z" fill="#E10098"/>
<path d="M11.7234 23.8453L38.5688 8.34375L39.9609 10.7531L13.1133 26.2547L11.7234 23.8453Z" fill="#E10098"/>
<path d="M34.5539 8.2219L36.9633 6.82971L63.7992 53.3133L61.3922 54.7031L34.5539 8.2219ZM12.7828 21.9985H15.5649V53.0016H12.7828V21.9985Z" fill="#E10098"/>
<path d="M59.4375 21.9984H62.2195V53.0015H59.4375V21.9984Z" fill="#E10098"/>
<path d="M36.8766 63.3797L60.225 49.8984L61.4414 52.0031L38.0907 65.4844L36.8766 63.3797Z" fill="#E10098"/>
<path d="M65.9063 53.9062C65.3279 54.9111 64.4645 55.7219 63.4252 56.2358C62.3859 56.7498 61.2175 56.9439 60.0679 56.7935C58.9182 56.6431 57.8391 56.1551 56.9669 55.3911C56.0948 54.6271 55.4689 53.6216 55.1685 52.5017C54.8681 51.3819 54.9067 50.1981 55.2794 49.1002C55.6521 48.0023 56.3421 47.0396 57.2621 46.3341C58.1822 45.6285 59.2908 45.2118 60.4478 45.1366C61.6048 45.0614 62.7581 45.3311 63.7617 45.9117C65.1049 46.6887 66.0851 47.9668 66.4871 49.4655C66.8891 50.9643 66.6803 52.5613 65.9063 53.9062ZM19.2188 26.9531C18.6405 27.958 17.777 28.7687 16.7377 29.2827C15.6984 29.7967 14.53 29.9908 13.3804 29.8404C12.2307 29.69 11.1516 29.2019 10.2794 28.438C9.4073 27.674 8.78142 26.6684 8.48102 25.5486C8.18063 24.4288 8.21921 23.245 8.5919 22.1471C8.96458 21.0492 9.65461 20.0865 10.5746 19.381C11.4947 18.6754 12.6034 18.2586 13.7603 18.1835C14.9173 18.1083 16.0706 18.378 17.0742 18.9586C18.4174 19.7356 19.3976 21.0136 19.7996 22.5124C20.2017 24.0111 19.9928 25.6082 19.2188 26.9531ZM9.09377 53.9062C8.51322 52.9026 8.24346 51.7493 8.31865 50.5923C8.39384 49.4353 8.81059 48.3267 9.51615 47.4066C10.2217 46.4866 11.1844 45.7966 12.2823 45.4239C13.3802 45.0512 14.564 45.0126 15.6838 45.313C16.8036 45.6134 17.8092 46.2393 18.5732 47.1114C19.3371 47.9836 19.8252 49.0627 19.9756 50.2124C20.126 51.362 19.9319 52.5304 19.4179 53.5697C18.9039 54.609 18.0932 55.4724 17.0883 56.0508C15.7434 56.8248 14.1463 57.0336 12.6476 56.6316C11.1488 56.2296 9.87076 55.2494 9.09377 53.9062ZM55.7813 26.9531C55.2007 25.9495 54.931 24.7962 55.0061 23.6392C55.0813 22.4822 55.4981 21.3735 56.2036 20.4535C56.9092 19.5335 57.8719 18.8434 58.9698 18.4708C60.0677 18.0981 61.2515 18.0595 62.3713 18.3599C63.4911 18.6603 64.4967 19.2862 65.2607 20.1583C66.0246 21.0304 66.5127 22.1096 66.6631 23.2593C66.8134 24.4089 66.6194 25.5773 66.1054 26.6166C65.5914 27.6559 64.7807 28.5193 63.7758 29.0976C62.4309 29.8716 60.8338 30.0805 59.3351 29.6785C57.8363 29.2764 56.5583 28.2963 55.7813 26.9531ZM37.5 70.3125C36.3411 70.3125 35.2083 69.9688 34.2447 69.325C33.2812 68.6812 32.5301 67.766 32.0867 66.6954C31.6432 65.6247 31.5271 64.4466 31.7532 63.31C31.9793 62.1734 32.5374 61.1293 33.3568 60.3099C34.1763 59.4905 35.2203 58.9324 36.3569 58.7063C37.4935 58.4802 38.6716 58.5963 39.7423 59.0397C40.813 59.4832 41.7281 60.2342 42.3719 61.1978C43.0157 62.1614 43.3594 63.2942 43.3594 64.4531C43.3616 65.2232 43.2115 65.9861 42.9178 66.6979C42.6241 67.4098 42.1926 68.0566 41.648 68.6011C41.1035 69.1457 40.4567 69.5772 39.7449 69.8709C39.033 70.1646 38.2701 70.3146 37.5 70.3125ZM37.5 16.3851C36.3411 16.3851 35.2083 16.0415 34.2447 15.3977C33.2812 14.7538 32.5301 13.8387 32.0867 12.768C31.6432 11.6974 31.5271 10.5193 31.7532 9.38265C31.9793 8.24604 32.5374 7.202 33.3568 6.38256C34.1763 5.56311 35.2203 5.00506 36.3569 4.77897C37.4935 4.55289 38.6716 4.66892 39.7423 5.1124C40.813 5.55589 41.7281 6.3069 42.3719 7.27047C43.0157 8.23403 43.3594 9.36689 43.3594 10.5258C43.3616 11.2958 43.2115 12.0587 42.9178 12.7706C42.6241 13.4825 42.1926 14.1293 41.648 14.6738C41.1035 15.2183 40.4567 15.6498 39.7449 15.9435C39.033 16.2372 38.2701 16.3873 37.5 16.3851Z" fill="#E10098"/>
</svg>
