<svg width="52" height="52" viewBox="0 0 52 52" fill="none" xmlns="http://www.w3.org/2000/svg">
<path d="M42.6985 8.53667C43.1219 7.81734 43.8058 7.28848 44.6085 7.05969C45.4113 6.8309 46.2712 6.91972 47.0102 7.30775C47.7492 7.69578 48.3106 8.35326 48.5781 9.14394C48.8455 9.93463 48.7984 10.7979 48.4467 11.5548L48.3015 11.8322L28.8015 44.9822C28.5279 45.4472 28.1427 45.8368 27.6808 46.1158C27.2189 46.3948 26.6949 46.5544 26.1559 46.5802C25.6169 46.606 25.08 46.4972 24.5935 46.2636C24.1071 46.03 23.6865 45.679 23.3697 45.2422L23.1985 44.9822L3.69852 11.8322C3.27278 11.1124 3.14086 10.2562 3.33019 9.44171C3.51953 8.62718 4.01555 7.91698 4.7151 7.4588C5.41466 7.00061 6.2639 6.82971 7.08623 6.98163C7.90857 7.13356 8.64069 7.59661 9.13036 8.2745L9.30152 8.5345L26 36.9265L42.6985 8.53667ZM32.1252 8.52584C32.5486 7.8065 33.2325 7.27764 34.0352 7.04886C34.8379 6.82007 35.6979 6.90889 36.4369 7.29692C37.1759 7.68494 37.7373 8.34243 38.0047 9.13311C38.2722 9.92379 38.2251 10.7871 37.8734 11.544L37.7282 11.8213L28.8015 26.9967C28.5281 27.4619 28.1431 27.8516 27.6813 28.1308C27.2195 28.41 26.6955 28.5698 26.1565 28.5958C25.6175 28.6219 25.0805 28.5133 24.594 28.2798C24.1074 28.0464 23.6867 27.6955 23.3697 27.2588L23.1985 26.9988L14.2784 11.83C13.8526 11.1102 13.7207 10.2541 13.91 9.43955C14.0994 8.62502 14.5954 7.91481 15.2949 7.45663C15.9945 6.99844 16.8437 6.82754 17.6661 6.97947C18.4884 7.13139 19.2205 7.59445 19.7102 8.27234L19.8814 8.53234L26 18.9432L32.1252 8.528V8.52584Z" fill="#5C5C5C"/>
</svg>
